<svg xmlns="http://www.w3.org/2000/svg" width="113.76" height="132.969" overflow="visible">
  <path fill-rule="evenodd" clip-rule="evenodd" fill="#575759" d="M54 .009c.38.02.915-.115.96.24v3.6c-1.188.172-2.391.33-3.84.24-.355.045-.22.58-.24.96h-.96c-.872.089-2.359-.439-1.92.96-2.579-.659-2.754 1.086-4.8.96-.355.044-.221.58-.24.96-.871.088-2.359-.439-1.92.96-1.972-.292-2.039 1.321-3.84 1.2.153 1.273-1.786.454-1.44 1.92h-1.44c.154 1.273-1.785.454-1.439 1.92-.832-.192-.922.357-1.68.24-.681 1.64-2.643 1.997-3.12 3.84-1.653-.613-.686 1.395-2.16.96v1.2c-1.487-.527-.433 1.488-1.92.96.17.89-.41 1.03-.24 1.92-1.583.097-1.437 1.924-2.88 2.16v1.68c-1.49-.45-.351 1.729-1.92 1.2v1.92h-.96c-.196 2.523-1.946 3.494-2.16 6-.418-.018-.746.054-.96.24v2.88h-.96v2.88h-.96v5.04h-.96c.242 4.083-.745 8.214 0 12v1.92c.46 1.54-1.026 5.026.96 5.04v1.92c.143.897-.533 2.613.96 2.16.271 1.01-.739 3.299.96 2.88.164.821-.22 1.827 0 2.64.177.654.459-.216.96.48.287.398.727 2.723 1.2 3.84.111.264.666.121.72.24.49 1.098-.228 2.363 1.2 1.92v1.68c.045.355.58.221.96.24.017 1.584.578 2.622 1.92 2.88-.114.835-.044 1.485.96 1.2.582 3.418 3.979 4.021 5.04 6.96h1.2c-.033 1.634 1.953 1.247 1.92 2.88.891-.17 1.029.41 1.92.24-.064 1.744 2.168 1.192 2.16 2.88h1.92v.96h1.92v.96c2.715.006 2.687 2.754 6 2.16v.96h2.16v.96h3.84v.96h4.08v.96h5.04c.42.86 3.189-.629 2.88.96.974-.307 3.273.714 3.12-.72 1.283-.156 3.195.315 4.08-.24h4.8c.275 1.725-.712 4.712.96 5.04.234 1.766-.443 4.443.96 5.04-.156 2.156.211 3.789.24 5.76.609.11.68.761.96 1.2v.96c.302 1.058-.79 3.511.96 3.12v1.92c-1.01.27-3.3-.739-2.88.96h-18.24v-.96h-5.76v-.96h-4.08v-.96h-2.16c-.771-.909-1.995-1.365-3.84-1.2.079-1.438-2.36-.359-2.16-1.92h-1.92v-.96h-1.92v-.96h-1.92v-.96c-.905.185-1.147-.293-1.92-.24-.388-1.293-1.576-1.784-3.12-1.92v-.96h-1.2v-.96h-1.68v-.96h-1.2c-.213-1.066-.854-1.707-1.92-1.92-.055-1.706-2.328-1.191-2.16-3.12h-.96c.577-1.457-1.328-.432-.96-1.68-.908-.372-1.671-.89-1.92-1.92-.045-.355-.58-.221-.96-.24-.683-1.398-1.63-2.53-3.12-3.12v-1.68c-2.105-.614-1.615-3.826-3.84-4.32-.253-.867.229-2.47-1.2-2.16v-.72c.114-.835.045-1.484-.96-1.2v-1.68c-.045-.355-.58-.221-.96-.24-.076-.964.388-2.468-.96-2.16-.088-.871.439-2.359-.96-1.92-.126-1.155.33-2.89-.96-2.88-.01-1.75-.375-3.145-1.2-4.08v-.96c-.143-.897.533-2.613-.96-2.16v-1.92c-.379-1.222.906-4.106-.96-3.84v-18h.96v-5.04h.96c-.18-1.939.286-3.234.24-5.04 1.222.342.552-1.208.72-1.92 1.313-.128 1.209-1.672 1.2-3.12 1.29.01.835-1.725.96-2.88h.96v-2.16h.96v-1.92h.96c.54-2.181 1.218-4.223 3.12-5.04v-1.92c1.488.527.432-1.488 1.92-.96-.115-.835-.045-1.485.96-1.2-.387-1.667 1.263-1.297.96-2.88h.96c.376-1.384 2.145-1.376 2.16-3.12 1.687-.873 2.967-2.153 3.84-3.84 1.666-.334 2.471-1.529 3.12-2.88.879-.161 2.212.132 1.92-1.2.835.115 1.484.045 1.2-.96h1.44c-.154-1.273 1.785-.454 1.439-1.92 3.223-.138 3.67-3.051 6.96-3.12.355-.045.22-.58.24-.96h2.4c.355-.044.221-.58.24-.96.897-.143 2.613.533 2.16-.96 1.01-.271 3.299.739 2.88-.96 3.117.396 3.625-1.815 6.96-1.2.11-.61.761-.68 1.2-.96z"/>
  <path fill-rule="evenodd" clip-rule="evenodd" fill="#F5941C" d="M108.96 35.049h.96v1.2c.026.854-.329 2.089.96 1.68v.24c.088.871-.439 2.359.96 1.92.186 1.414-.524 3.725.96 3.84v.24c.229 2.011-.55 5.03.96 5.76v10.08c-1.491.829-.728 3.912-.96 6-1.484.115-.774 2.426-.96 3.84-.418-.018-.746.054-.96.24v1.92h-.96v2.88h-.96v2.16H108c.17.89-.41 1.03-.24 1.92h-.96c.243 1.603-1.412 1.308-.96 3.12-1.487-.527-.432 1.488-1.92.96v1.92c-.38.021-.915-.115-.96.24v.72c-.38.02-.915-.115-.96.24v.72c-2.292.828-2.971 3.27-5.04 4.32v.72c-1.646.755-3.404 1.396-4.08 3.12h-.96c-.826-.187-1.146.134-.96.96H90c-.326.074-.199.601-.24.96h-.72c-.82-.101-1.367.072-1.2.96-.872.089-2.359-.439-1.92.96-.964.076-2.468-.388-2.16.96-.497.143-1.576-.297-1.68.24h-.24c-.826-.187-1.146.134-.96.96h-1.92c-.872.088-2.359-.439-1.92.96h-3.12c-1.01.27-3.3-.739-2.88.96H60v-.96h-6v-.96h-3.12v-.96h-1.92c-1.018-.423-1.442-1.438-3.12-1.2-.743-1.177-2.224-1.616-3.84-1.92v-.96h-1.92v-.96h-1.2v-.96c-.891.17-1.029-.41-1.92-.24v-.72c-.789-.571-1.839-.881-1.92-2.16h-1.2c.528-1.487-1.487-.433-.96-1.92h-1.92v-1.681c-1.104.063-.599-1.48-1.92-1.199.408-1.528-1.21-1.03-1.2-2.16h-.72c-.16-.879.131-2.211-1.2-1.92v-.24c.187-.826-.134-1.146-.96-.96v-.72c.187-.826-.134-1.146-.96-.96v-.24c-.021-.38.115-.915-.24-.96h-.72v-.96c.1-.82-.072-1.368-.96-1.2.112-2.832-1.491-3.949-2.16-6v-.72c-.089-.872.439-2.359-.96-1.92v-2.16c-.088-.872.439-2.359-.96-1.92v-3.12c1.415.186 3.726-.525 3.84.96h4.08c-.187.827.134 1.146.96.96v1.2c.224 2.097 1.355 3.284 2.16 4.8v.24c-.285 1.165.848.912.96 1.68v.24c-.187.826.134 1.146.96.96-.187.826.134 1.146.96.96v.96c-.187.827.134 1.146.96.96v.96c.932.508 1.652 1.228 2.16 2.16h.72c.021.38-.115.915.24.96h.96v1.68c.443.356 1.141.46 1.92.48v.72c.293.427 1.391.05.96 1.2h1.2c-.527 1.488 1.488.432.96 1.92h1.92v.96c2.714.006 2.687 2.754 6 2.16v.96h2.16v.96h3.84v.96h5.04v.96h3.84c.326-.074.199-.601.24-.96v-.96c-.216-1.385.609-3.81-.96-3.84v-.24c.819-2.663-1.011-3.945-3.12-2.88H46.8c-.179-.541-1.346-.094-1.92-.24.144-.623-.096-.863-.72-.72v-1.92c.944.304.714-.566.72-1.2v-.96c.541-.179.094-1.347.24-1.92 1.527-.152.756-2.604.96-4.08 1.29.011.835-1.726.96-2.88h3.12v.72c3.314.302 7.261.37 10.56 0 .351-.29.231-1.049 1.2-.72-.302-1.059.79-3.51-.96-3.12v-3.84c1.347-.253 2.916-.284 4.56-.24.257-.464.46-.981 1.44-.72v1.68c.143.897-.533 2.613.96 2.16v2.641c.104.536 1.183.097 1.68.239.26-.78 1.128-.952 2.16-.96.355-.045.221-.58.24-.96 1.556-.124 1.53-1.829 2.88-2.16.909-.771 1.421-1.938 1.2-3.84h.72v-1.92c.897-.144 2.613.533 2.16-.96 2.328.328 2.651-1.348 4.8-1.2.355-.044.221-.58.24-.96.872-.088 2.359.439 1.92-.96 1.227.106 2.363.123 2.4-.96.944-.385.083 1.037.72.96h.72c.153.887-.311 2.391.24 2.88v6c-.545.256-.092 1.509-.24 2.16-1.29-.01-.835 1.725-.96 2.88h-.96v1.92h-.96v1.2c-1.525-.006-1.319 1.721-2.64 1.92-.436 1.965-2.986 1.814-3.36 3.84-.879.16-2.212-.131-1.92 1.2H78c-.826-.187-1.146.134-.96.96h-.96c-.354.445-.197 1.402-.96 1.439 1.562.52-.215 4.375 1.68 4.561-.073 1.833.038 3.482.24 5.04.872-.089 2.359.439 1.92-.96h.96c.872-.088 2.359.439 1.92-.96h.24c.931-.028 2.211.291 1.92-.96.872-.088 2.359.439 1.92-.96.88-.161 2.212.132 1.92-1.2h.24c.826.187 1.146-.134.96-.96h1.68c.975-2.146 3.643-2.597 4.32-5.04h.72c.593-.768.931-1.789 2.16-1.92v-1.2h.96c-.17-.89.41-1.03.24-1.92 1.398-.202 1.802-1.397 1.92-2.88h.96v-1.92h.96v-2.16h.96v-2.88h.96v-1.2c.537-.104.098-1.183.24-1.68 1.494-.266.761-2.76.96-4.32v-.96h.72c-.247-2.89.932-7.176 0-9.601-.099-.258-.391-.22-.72-.239v-.96c-.124-1.396.27-3.311-.24-4.32.32-2.08 1.776-3.023 3.12-4.08v-.72z"/>
  <path fill-rule="evenodd" clip-rule="evenodd" fill="#FDB811" d="M61.92 6.969h7.92c3.211-.091 4.729 1.513 8.16 1.2v.96h3.84v.96H84c-.187.826.134 1.146.96.96h.96v.96c2.091-.331 2.108 1.412 4.08 1.2v.96h1.92c-.187.826.134 1.146.96.96v.96h1.92c.021.38-.115.916.24.96H96v.96c.826-.187 1.146.134.96.96h.96c-.187.827.134 1.146.96.96-.087 1.848 2.188 1.333 2.16 3.12h.96v.96h.96v.24c-.241.801.333.787.96.72v.96c.074.326.601.199.96.24v.96c-.136 1.177 1.196.884 1.2 1.92h.72v1.92c1.151-.431.773.667 1.2.96v.24c-.187.826.134 1.146.96.96v2.64c-1.344 1.057-2.8 2-3.12 4.08-1.372.492-.244-1.516-.96-1.68v-1.2h-.96v-2.88h-.96v-2.16H102v-1.92c-1.332.291-1.039-1.041-1.2-1.92-1.018-.662-1.92-1.44-1.92-3.12h-.96v-.96h-.96v-.96H96c.147-1.827-1.97-1.39-1.92-3.12-1.447.408-.621-1.459-2.16-.96v-.96h-.96v-.96h-1.2v-.96c-.791-.089-1.834.074-1.68-.96h-1.2c-.074-.325-.601-.199-.96-.24v-.72c-.098-.543-1.406.127-.96-.96-.89.17-1.03-.41-1.92-.24h-.96v-.96h-2.16v-.96H76.8v-.72c-.104-.537-1.183-.098-1.68-.24h-.24c-1.871-.769-4.064-1.215-6.96-.96h-6v3.839c4.279.12 9.065-.265 12.96.24v.72h-.96v6c-1.356-.557-.535 1.064-1.44.96-1.906-1.665-5.261-.437-8.399-.72-.761 2.688.5 4.766.96 6.96v.72c-.261.98.257 1.184.72 1.44.146.573-.301 1.741.24 1.92v3.84c.826-.187 1.146.134.96.96 1.022.018 1.679.401 2.88.24-.304.943.566.714 1.2.72h.96c.179.542 1.346.094 1.92.24-.01 1.29 1.726.835 2.88.96-.167.887.38 1.061 1.2.96h.96c-.187.826.134 1.146.96.96h.96c-.187.826.134 1.146.96.96h.24v.96c1.81-.449 1.279 1.44 2.88 1.2v.72c.074.326.601.199.96.24v.96c.131 1.229 1.152 1.567 1.92 2.16-.184 2.503 1.426 3.214 1.2 5.76-.637.077.225-1.345-.72-.96-.037 1.083-1.174 1.066-2.4.96.439 1.399-1.048.872-1.92.96-.02.38.115.916-.24.96-2.148-.147-2.472 1.528-4.8 1.2.453 1.493-1.263.816-2.16.96v.96c-1.498-.022-.37-2.67-.72-3.84-1.186-.574-1.472-2.049-2.16-3.12-1.972.212-1.989-1.531-4.08-1.2.136-1.096-1.03-.889-1.92-.96-1.022.097-2.473-.232-3.12.24-.102.501.165.636.24.96v1.92c1.589-.309.1 2.46.96 2.88v.24c.27 1.011-.739 3.3.96 2.88v2.16c-.98-.262-1.184.256-1.44.72-1.644-.044-3.213-.013-4.56.24v-2.16h-.96v-6h-.96v-6h-2.88v-.96h-2.16c-.109-.611-1.684.244-1.2-.96-1.526.166-2.313-.406-3.84-.24v-.96h-1.92v-.96h-1.2v-.96h-1.68c-.021-.38.115-.916-.24-.96-.826.187-1.146-.134-.96-.96v-.721c-.074-.325-.602-.198-.96-.239.114-.835.045-1.485-.96-1.2v-.96c.17-.89-.41-1.03-.24-1.92h-.72v-7.92c1.348.308.884-1.196.96-2.16v-.72h.96v-1.2h.96v-1.92c.38-.021.916.115.96-.24.427-1.572 2.766-1.233 3.12-2.88h.72c.326-.074.199-.602.24-.96h1.92v-.96h.96c.89-.07 2.056.136 1.92-.96.204.044.227-.094.24-.24h.72v-.72h-.719v-3.12c-.712.169-2.262-.501-1.92.72v.24h-2.16v.96h-1.68c-.326.074-.199.601-.24.96-2.708-.388-2.446 2.193-4.801 2.16-.325.074-.198.602-.239.96h-.96c-.326.074-.199.601-.24.96h-.72c-.325.074-.199.602-.24.96-.38.021-.915-.115-.96.24-1.695.545-2.07 2.409-3.84 2.88.17.891-.41 1.029-.24 1.92h-.72c-.997 1.084-1.606 2.553-3.12 3.12v1.92h-.96c.313 1.593-.979 1.58-.96 2.88v.24c-.326.074-.199.601-.24.96h-.96v2.88h-.96v2.16h-.96v4.8h-.96v11.28c.088.871-.439 2.359.96 1.92v4.8h-4.08c-.114-1.485-2.425-.774-3.84-.96v-12.96h.479c1.025-.096.229-2.011.48-2.88v-2.16h.96c.157-1.203-.332-3.052.96-3.12v-1.68c.266-.534.424-1.177 1.2-1.2v-1.92h.96v-1.92h.96v-1.92c.38-.02.915.115.96-.24v-.96h.96c.057-2.663 2.523-2.917 3.12-5.04v-.96h.96v-.96h.96v-.96c2.262-.299 2.223-2.897 4.561-3.12.325-.074.199-.602.239-.96h1.2c-.285-1.005.365-1.075 1.2-.96v-.96h.72c2.041-.04 1.689-2.47 4.08-2.16-.447-1.087.863-.417.96-.96h1.2v-.96h.96c.853-.026 2.089.329 1.68-.96h2.16v-.96h.96c4.14-.258 6.778-2.02 11.039-2.159zm-2.88 17.04v-1.92c-1.478-.415-2.379.064-4.08 0 .285 1.005-.365 1.074-1.2.96-.121 1.238-1.075 1.645-1.92 2.16v5.76c.557-.077.922.038 1.2.24v.72c.045.355.58.221.96.24v.96h1.92c-.308 1.348 1.196.884 2.16.96h.96c-.067.627-.081 1.201.72.96v-.96h.719c.974.093.265-1.496.48-2.16h-.96v-1.92c-.216-1.385.609-3.81-.96-3.84.001-.721.001-1.44.001-2.16z"/>
</svg>
